<!-- Generator: Adobe Illustrator 19.0.0, SVG Export Plug-In . SVG Version: 6.00 Build 0)  -->
<svg version="1.1" xmlns="http://www.w3.org/2000/svg" xmlns:xlink="http://www.w3.org/1999/xlink" x="0px" y="0px"
	 viewBox="0 0 426.4 426.4" style="enable-background:new 0 0 426.4 426.4;" xml:space="preserve">
<g>
	<g>
		<path d="M394.4,248.8V132c0,0,0,0,0-0.8s0-1.6,0-1.6v-0.8c0-0.8-0.8-0.8-0.8-1.6c0,0,0-0.8-0.8-0.8c-0.8-0.8-0.8-0.8-1.6-1.6
			c0,0,0,0-0.8,0L220.8,56c-0.8,0-1.6-0.8-3.2-0.8H148c0-0.8-0.8-2.4-1.6-3.2L112.8,6.4c-1.6-2.4-4-3.2-6.4-3.2
			c-2.4,0-4.8,0.8-6.4,3.2L66.4,52c-0.8,0.8-0.8,2.4-1.6,3.2H8c-4.8,0-8,3.2-8,8V132c0,4.8,3.2,8,8,8h56.8v180.8
			c-1.6,0-3.2,0.8-4.8,2.4l-37.6,40c-0.8,1.6-1.6,4-1.6,5.6v46.4c0,4.8,3.2,8,8,8h78.4h78.4c4.8,0,8-3.2,8-8v-46.4
			c0-2.4-0.8-4-2.4-5.6l-37.6-40c-0.8-1.6-2.4-1.6-4.8-2.4V140h230.4v116c0,4.8,3.2,8,8,8c12.8,0,23.2,10.4,23.2,23.2
			c0,12.8-10.4,23.2-23.2,23.2c-12.8,0-23.2-10.4-23.2-23.2c0-4.8-3.2-8-8-8s-8,3.2-8,8c0,21.6,17.6,39.2,39.2,39.2
			c21.6,0,39.2-17.6,39.2-39.2C425.6,268.8,412.8,252.8,394.4,248.8z M106.4,25.6L128.8,56H84L106.4,25.6z M176.8,372v35.2h-70.4
			H36.8V372l32.8-35.2h3.2H140h3.2L176.8,372z M132,147.2v30.4l-51.2,28v-30.4L132,147.2z M80.8,156v-16h30.4L80.8,156z M132,195.2
			v30.4l-51.2,28v-30.4L132,195.2z M132,243.2v30.4l-51.2,28v-30.4L132,243.2z M132,292v28.8L80.8,320L132,292z M16,124V71.2h200.8
			L346.4,124H16z"/>
	</g>
</g>
<g>
</g>
<g>
</g>
<g>
</g>
<g>
</g>
<g>
</g>
<g>
</g>
<g>
</g>
<g>
</g>
<g>
</g>
<g>
</g>
<g>
</g>
<g>
</g>
<g>
</g>
<g>
</g>
<g>
</g>
</svg>
