<!-- Generated by IcoMoon.io -->
<svg version="1.1" xmlns="http://www.w3.org/2000/svg" viewBox="0 0 1024 1024">
<path d="M1015.421 490.678c-9.129-12.489-226.652-305.789-504.468-305.789s-495.349 293.3-504.468 305.777c-8.646 11.848-8.646 27.917 0 39.765 9.119 12.489 226.652 305.789 504.468 305.789s495.339-293.302 504.468-305.779c8.658-11.846 8.658-27.927 0-39.763zM510.953 768.841c-204.641 0-381.882-194.67-434.349-258.31 52.399-63.696 229.269-258.264 434.349-258.264 204.631 0 381.86 194.635 434.349 258.31-52.4 63.694-229.269 258.264-434.349 258.264z"/>
<path d="M510.953 308.417c-111.457 0-202.138 90.681-202.138 202.138s90.681 202.138 202.138 202.138 202.138-90.681 202.138-202.138-90.681-202.138-202.138-202.138zM510.953 645.313c-74.309 0-134.758-60.451-134.758-134.758s60.451-134.758 134.758-134.758 134.758 60.451 134.758 134.758-60.449 134.758-134.758 134.758z"/>
</svg>
