<!-- Generated by IcoMoon.io -->
<svg version="1.1" xmlns="http://www.w3.org/2000/svg"  viewBox="0 0 1024 1024">
<path d="M744.578 76.8c-84.79 0-159.121 37.808-214.954 109.34-7.446 9.54-14.083 19.084-19.966 28.328-5.883-9.246-12.52-18.788-19.966-28.328-55.833-71.532-130.163-109.34-214.953-109.34-160.176 0-274.738 134.118-274.738 295.052 0 184.020 150.821 357.451 489.027 562.336 6.341 3.841 13.486 5.762 20.631 5.762s14.29-1.919 20.631-5.759c338.206-204.884 489.027-378.315 489.027-562.336 0.001-160.851-114.467-295.054-274.737-295.054zM834.479 600.989c-70.41 78.563-176.812 161.287-324.822 252.486-148.010-91.199-254.411-173.923-324.822-252.484-70.79-78.989-105.202-153.94-105.202-229.137 0-115.875 78.308-215.42 195.103-215.42 59.479 0 110.194 25.861 150.737 76.867 32.419 40.791 46.078 82.911 46.174 83.212 5.186 16.633 20.588 27.963 38.011 27.963s32.825-11.328 38.011-27.963c0.125-0.402 13.374-41.209 44.728-81.376 40.763-52.224 91.963-78.704 152.179-78.704 116.919 0 195.103 99.64 195.103 215.42 0.001 75.197-34.412 150.148-105.202 229.137z"/>
</svg>
