<!-- Generated by IcoMoon.io -->
<svg version="1.1" xmlns="http://www.w3.org/2000/svg"  viewBox="0 0 1024 1024">
<path d="M531.998 983.998c0 22.094-17.906 40-40 40h-451.998c-22.094 0-40-17.906-40-40v-550.662c0-11.875 5.273-23.133 14.39-30.726l471.999-393.335c14.836-12.367 36.383-12.367 51.219 0l471.998 393.335c16.969 14.141 19.258 39.359 5.117 56.336-14.141 16.969-39.367 19.258-56.336 5.117l-446.389-371.991-431.998 359.999v491.928h411.999c22.093 0 40 17.906 40 40zM960.676 875.788c-43.89 52.914-109.429 101.359-194.804 143.999-11.258 5.617-24.492 5.617-35.75 0-85.375-42.64-150.913-91.086-194.796-143.999-130.281-157.054-39.562-330.389 94.672-330.389 53.492 0 92.843 21.898 117.999 42.453 25.156-20.555 64.508-42.453 117.999-42.453 134.492 0 224.632 173.718 94.68 330.389zM865.997 625.398c-55.336 0-84.382 41.484-84.664 41.898-16.609 25.055-51.633 23.523-66.57 0.164-2.453-3.445-31.172-42.062-84.765-42.062-86.218 0-160.273 166.156 117.999 313.624 278.273-147.468 204.234-313.624 118-313.624z"/>
</svg>
