<svg version="1.1" xmlns="http://www.w3.org/2000/svg" xmlns:xlink="http://www.w3.org/1999/xlink" x="0px" y="0px"
	 viewBox="0 0 512 512" style="enable-background:new 0 0 512 512;" xml:space="preserve">
<g>
	<g>
		<g>
			<path d="M316,331H196c-11.046,0-20,8.954-20,20c0,11.046,8.954,20,20,20h120c11.046,0,20-8.954,20-20
				C336,339.954,327.046,331,316,331z"/>
			<path d="M256,141c-44.112,0-80,35.888-80,80s35.888,80,80,80s80-35.888,80-80S300.112,141,256,141z M256,261
				c-22.056,0-40-17.944-40-40c0-22.056,17.944-40,40-40c22.056,0,40,17.944,40,40C296,243.056,278.056,261,256,261z"/>
			<path d="M386,0H86C74.954,0,66,8.954,66,20v472c0,11.046,8.954,20,20,20h300c33.084,0,60-26.916,60-60V60
				C446,26.916,419.084,0,386,0z M406,452c0,11.028-8.972,20-20,20H106V40h280c11.028,0,20,8.972,20,20V452z"/>
		</g>
	</g>
</g>
</svg>
