<!-- Generator: Adobe Illustrator 19.0.0, SVG Export Plug-In . SVG Version: 6.00 Build 0)  -->
<svg version="1.1" xmlns="http://www.w3.org/2000/svg" xmlns:xlink="http://www.w3.org/1999/xlink" x="0px" y="0px"
	 viewBox="0 0 512 512" style="enable-background:new 0 0 512 512;" xml:space="preserve">
<g>
	<g>
		<path d="M206.932,120.359c-4.73-4.73-12.399-4.73-17.13,0l-3.331,3.331c-4.73,4.73-4.73,12.399,0,17.13
			c2.366,2.365,5.466,3.548,8.566,3.548s6.2-1.182,8.564-3.548l3.331-3.331C211.661,132.759,211.661,125.09,206.932,120.359z"/>
	</g>
</g>
<g>
	<g>
		<path d="M291.901,171.916c-9.504-9.504-22.138-14.738-35.574-14.738c-13.444,0-26.082,5.235-35.586,14.738
			c-9.504,9.504-14.738,22.138-14.738,35.575c-0.001,27.75,22.574,50.326,50.324,50.326c13.436,0,26.07-5.235,35.574-14.739
			c9.504-9.505,14.739-22.143,14.739-35.586C306.64,194.056,301.406,181.422,291.901,171.916z M274.772,225.948
			c-4.928,4.93-11.48,7.644-18.445,7.644c-14.393,0-26.101-11.709-26.101-26.101c0-6.964,2.714-13.515,7.644-18.444
			c4.928-4.93,11.483-7.644,18.458-7.644c6.966,0,13.516,2.714,18.445,7.644c4.93,4.93,7.645,11.48,7.645,18.445
			C282.418,214.465,279.703,221.018,274.772,225.948z"/>
	</g>
</g>
<g>
	<g>
		<path d="M439.267,361.11v-89.422l11.881,11.881c2.366,2.365,5.465,3.548,8.564,3.548s6.2-1.182,8.564-3.548
			c4.73-4.73,4.73-12.399,0-17.13l-32.557-32.557l-31.852-31.852c-0.432-13.037-0.126-57.516,0.445-97.256
			c0.046-3.241-1.209-6.367-3.485-8.676c-2.276-2.31-5.383-3.609-8.626-3.609h-56.66c-6.689,0-12.112,5.423-12.112,12.112v16.99
			l-58.863-58.863c-4.73-4.73-12.399-4.73-17.13,0l-30.986,30.986c-4.73,4.73-4.73,12.399,0,17.13c4.73,4.731,12.399,4.73,17.13,0
			l22.422-22.423L383.61,216.031c0.008,0.008,0.016,0.017,0.025,0.025c0.002,0.002,0.004,0.004,0.006,0.006l31.402,31.402v125.418
			v55.715h-90.634v-130.41c0-6.689-5.423-12.112-12.112-12.112H200.357c-6.69,0-12.112,5.423-12.112,12.112v130.41H96.957v-55.715
			V247.464l80.855-80.855c4.73-4.73,4.73-12.399,0-17.13c-4.73-4.729-12.399-4.729-17.13,0l-84.403,84.403l-35.694,35.694
			c-4.73,4.73-4.73,12.399,0,17.13c2.365,2.365,5.465,3.548,8.564,3.548c3.099,0,6.2-1.182,8.564-3.548l15.016-15.016v89.422
			C32.021,364.768,0,399.061,0,440.709c0,6.689,5.423,12.112,12.112,12.112h72.733h115.512h111.939h114.858h72.733
			c6.689,0,12.112-5.423,12.112-12.112C512,399.061,479.979,364.768,439.267,361.11z M379.543,155.415
			c-0.059,8.344-0.093,15.76-0.099,22.19l-31.792-31.792v-29.102h32.276C379.807,126.534,379.646,140.998,379.543,155.415z
			 M72.733,428.597H25.55c5.035-22.627,23.872-40.116,47.182-43.139V428.597z M300.185,428.597h-87.715V310.299h87.715V428.597z
			 M439.267,428.597v-43.139c23.311,3.023,42.146,20.513,47.182,43.139H439.267z"/>
	</g>
</g>
</svg>
