<!-- Generated by IcoMoon.io -->
<svg version="1.1" xmlns="http://www.w3.org/2000/svg" viewBox="0 0 1024 1024">
<path d="M512 0c-282.969 0-512 228.992-512 512 0 89.805 23.422 177.516 67.899 254.875l-65.969 204.859c-4.602 14.281-0.82 29.938 9.789 40.547 10.508 10.508 26.125 14.43 40.547 9.789l204.859-65.969c77.359 44.477 165.070 67.899 254.875 67.899 282.969 0 512-228.992 512-512 0-282.969-228.993-512-512-512zM512 944c-81.117 0-160.187-22.633-228.664-65.453-9.851-6.156-22.086-7.82-33.469-4.156l-147.883 47.625 47.625-147.883c3.61-11.219 2.086-23.469-4.164-33.469-42.813-68.477-65.445-147.547-65.445-228.664 0-238.203 193.797-432 432-432s432 193.797 432 432-193.797 432-432 432zM562 512c0 27.609-22.383 50-50 50s-50-22.391-50-50c0-27.617 22.383-50 50-50s50 22.383 50 50zM762 512c0 27.609-22.383 50-50 50s-50-22.391-50-50c0-27.617 22.383-50 50-50s50 22.383 50 50zM362 512c0 27.609-22.383 50-50 50-27.609 0-50-22.391-50-50 0-27.617 22.391-50 50-50 27.617 0 50 22.383 50 50z"/>
</svg>
