<svg viewBox="-49 0 511 512" xmlns="http://www.w3.org/2000/svg"><path d="m392.5 49.941406h-224.738281v-29.941406c0-11.046875-8.953125-20-20-20h-127.261719c-11.046875 0-20 8.953125-20 20v472c0 11.046875 8.953125 20 20 20h372c11.046875 0 20-8.953125 20-20v-422.058594c0-11.046875-8.953125-20-20-20zm-20 422.058594h-332v-432h87.261719v29.941406c0 11.046875 8.957031 20 20 20h224.738281zm-38.28125-58.445312c0 11.046874-8.953125 20-20 20h-215.4375c-11.046875 0-20-8.953126-20-20 0-11.042969 8.953125-20 20-20h215.4375c11.046875 0 20 8.957031 20 20zm-235.4375-97.921876h215.4375c11.046875 0 20 8.953126 20 20 0 11.042969-8.953125 20-20 20h-215.4375c-11.046875 0-20-8.957031-20-20 0-11.046874 8.953125-20 20-20zm39.171875-187.246093h137.09375c11.046875 0 20 8.953125 20 20s-8.953125 20-20 20h-48.546875v97.511719c0 11.042968-8.953125 20-20 20s-20-8.957032-20-20v-97.511719h-48.546875c-11.046875 0-20-8.953125-20-20s8.953125-20 20-20zm0 0"/></svg>