<svg viewBox="0 0 90 74" version="1.1" xmlns="http://www.w3.org/2000/svg" xmlns:xlink="http://www.w3.org/1999/xlink">
    <g id="Page-1" stroke="none" stroke-width="1" fill="none" fill-rule="evenodd">
        <g transform="translate(-1388.000000, -2377.000000)" fill-rule="nonzero">
            <g id="Group-14-Copy" transform="translate(0.000000, 2065.000000)">
                <g id="Group-8" transform="translate(349.000000, 262.000000)">
                    <g id="Group-7-Copy-4" transform="translate(1007.000000, 50.000000)">
                        <g id="town" transform="translate(32.000000, 0.000000)">
                            <polygon id="Path-01" fill="#D4E1F4" points="15.7069288 9.90900037 19.9452831 9.90900037 19.9452831 71.4002517 15.7069288 71.4002517"></polygon>
                            <polygon id="Path-02" fill="#D4E1F4" points="52.6999942 24.8990521 56.9383485 24.8990521 56.9383485 73.1258779 52.6999942 73.1258779"></polygon>
                            <path d="M87.9908416,62.7860195 C87.3705232,62.7860195 86.8672461,63.2885652 86.8672461,63.909615 L86.8672461,65.2204764 C86.8665146,66.1465648 86.1181824,66.8992861 85.1920938,66.9058697 L85.1474719,66.9058697 L85.1474719,63.2102938 C87.3412629,62.6872659 88.8898642,60.7290204 88.8927903,58.4737828 L88.8927903,53.4805127 C88.8927903,50.7907596 86.7128979,48.6115989 84.0238764,48.6115989 C81.3348549,48.6115989 79.1549625,50.7907596 79.1549625,53.4805127 L79.1549625,58.4737828 C79.15862,60.7290204 80.7072213,62.6872659 82.9002809,63.2102938 L82.9002809,72.5531075 C82.9002809,73.1734258 83.4035581,73.676703 84.0238764,73.676703 C84.6441948,73.676703 85.1474719,73.1734258 85.1474719,72.5531075 L85.1474719,69.1530607 L85.1957513,69.1530607 C87.3610135,69.1413566 89.1107794,67.3850071 89.1144371,65.2204764 L89.1144371,63.909615 C89.1144371,63.2885652 88.6118914,62.7860195 87.9908416,62.7860195 L87.9908416,62.7860195 Z M81.4021536,58.4737828 L81.4021536,53.4805127 C81.4021536,52.0321277 82.576223,50.8587899 84.0238764,50.8587899 C85.4722612,50.8587899 86.6455993,52.0321277 86.6455993,53.4805127 L86.6455993,58.4737828 C86.6441363,59.4854577 86.0611247,60.405694 85.1474719,60.8387464 L85.1474719,59.9024169 C85.1474719,59.2820985 84.6441948,58.7788213 84.0238764,58.7788213 C83.4035581,58.7788213 82.9002809,59.2820985 82.9002809,59.9024169 L82.9002809,60.8387464 C81.9866281,60.405694 81.4036165,59.4854577 81.4021536,58.4737828 Z" id="Shape-03" fill="#1E1D85"></path>
                            <path d="M77.9589478,65.9293071 L77.9589478,25.5713073 C77.9589478,24.9502575 77.4556706,24.4477118 76.8353522,24.4477118 L52.9589478,24.4477118 C52.3378979,24.4477118 51.8353522,24.9502575 51.8353522,25.5713073 L51.8353522,72.605776 L54.0825433,72.605776 L54.0825433,58.5301088 L59.7941537,58.5301088 L59.7941537,72.605776 L62.0413448,72.605776 L62.0413448,58.5301088 L67.7529552,58.5301088 L67.7529552,65.8517674 C65.8371371,66.2153266 64.4779963,67.9277856 64.5584622,69.8750584 C64.6389279,71.8230629 66.1363238,73.4170178 68.0748185,73.6203768 C70.0140449,73.823736 71.8084328,72.5743212 72.2912277,70.6855689 C72.7740227,68.7968165 71.7989232,66.8393024 70.0001463,66.0873127 L70.0001463,58.5301088 L75.7117567,58.5301088 L75.7117567,65.9695401 C73.8478757,66.5613296 72.7008719,68.4303313 73.0176146,70.3600479 C73.3343575,72.2890333 75.0190191,73.6942592 76.9743388,73.6584154 C78.9289268,73.623303 80.5616515,72.1595564 80.8089009,70.2195985 C81.0561506,68.2803723 79.8425796,66.4530665 77.9589478,65.9293071 L77.9589478,65.9293071 Z M68.4808052,71.4002517 C67.5503277,71.4002517 66.795412,70.645336 66.795412,69.7148584 C66.795412,68.7836494 67.5503277,68.0294652 68.4808052,68.0294652 C69.4120142,68.0294652 70.1661985,68.7836494 70.1661985,69.7148584 C70.165467,70.645336 69.4112828,71.3987886 68.4808052,71.4002517 Z M75.7117567,48.3241163 L70.0001463,48.3241163 L70.0001463,42.6125058 L75.7117567,42.6125058 L75.7117567,48.3241163 Z M67.7529552,34.6537043 L67.7529552,40.3653148 L62.0413448,40.3653148 L62.0413448,34.6537043 L67.7529552,34.6537043 Z M62.0413448,32.4065133 L62.0413448,26.6949028 L67.7529552,26.6949028 L67.7529552,32.4065133 L62.0413448,32.4065133 Z M59.7941537,40.3653148 L54.0825433,40.3653148 L54.0825433,34.6537043 L59.7941537,34.6537043 L59.7941537,40.3653148 Z M59.7941537,42.6125058 L59.7941537,48.3241163 L54.0825433,48.3241163 L54.0825433,42.6125058 L59.7941537,42.6125058 Z M62.0413448,42.6125058 L67.7529552,42.6125058 L67.7529552,48.3241163 L62.0413448,48.3241163 L62.0413448,42.6125058 Z M75.7117567,40.3653148 L70.0001463,40.3653148 L70.0001463,34.6537043 L75.7117567,34.6537043 L75.7117567,40.3653148 Z M75.7117567,32.4065133 L70.0001463,32.4065133 L70.0001463,26.6949028 L75.7117567,26.6949028 L75.7117567,32.4065133 Z M59.7941537,26.6949028 L59.7941537,32.4065133 L54.0825433,32.4065133 L54.0825433,26.6949028 L59.7941537,26.6949028 Z M54.0825433,56.2829178 L54.0825433,50.5713073 L59.7941537,50.5713073 L59.7941537,56.2829178 L54.0825433,56.2829178 Z M62.0413448,56.2829178 L62.0413448,50.5713073 L67.7529552,50.5713073 L67.7529552,56.2829178 L62.0413448,56.2829178 Z M70.0001463,56.2829178 L70.0001463,50.5713073 L75.7117567,50.5713073 L75.7117567,56.2829178 L70.0001463,56.2829178 Z M76.9077715,71.4002517 C75.977294,71.4002517 75.2223783,70.645336 75.2223783,69.7148584 C75.2223783,68.7836494 75.977294,68.0294652 76.9077715,68.0294652 C77.8389805,68.0294652 78.5931648,68.7836494 78.5931648,69.7148584 C78.5924333,70.645336 77.8382491,71.3987886 76.9077715,71.4002517 Z" id="Shape-01" fill="#0EC6D5"></path>
                            <path d="M88.876697,71.4821805 L47.9964009,71.4821805 L47.9964009,9.65370431 C47.9964009,9.03265449 47.4931238,8.5301088 46.8728054,8.5301088 L42.6907772,8.5301088 L42.6907772,7.60914082 L44.2196277,7.60914082 C44.8399461,7.60914082 45.3432232,7.10586367 45.3432232,6.48554532 L45.3432232,1.17992154 C45.3432232,0.558871723 44.8399461,0.05632603 44.2196277,0.05632603 L17.6907772,0.05632603 C17.0697273,0.05632603 16.5671816,0.558871723 16.5671816,1.17992154 L16.5671816,6.48554532 C16.5671816,7.10586367 17.0697273,7.60914082 17.6907772,7.60914082 L19.2196277,7.60914082 L19.2196277,8.5301088 L15.0375994,8.5301088 C14.4165496,8.5301088 13.9140039,9.03265449 13.9140039,9.65370431 L13.9140039,65.9424742 C12.7918715,66.2672637 11.8738296,67.0755794 11.4085908,68.1472378 C10.9440835,69.2181648 10.980659,70.4412453 11.509539,71.4821805 L10.0984609,71.4821805 C10.9360371,69.8282419 10.505179,67.812939 9.06264625,66.6469159 C7.62084494,65.4808931 5.55945693,65.4808931 4.11765562,66.6469159 C2.67512285,67.812939 2.24426498,69.8282419 3.08257266,71.4821805 L1.12359551,71.4821805 C0.503277154,71.4821805 5.32907052e-15,71.9854577 5.32907052e-15,72.605776 C5.32907052e-15,73.2268258 0.503277154,73.7293715 1.12359551,73.7293715 L88.876697,73.7293715 C89.4970154,73.7293715 90.0002925,73.2268258 90.0002925,72.605776 C90.0002925,71.9854577 89.4970154,71.4821805 88.876697,71.4821805 L88.876697,71.4821805 Z M6.59015094,68.0294652 C7.52135993,68.0294652 8.27554419,68.7836494 8.27554419,69.7148584 C8.27554419,70.645336 7.52135993,71.4002517 6.59015094,71.4002517 C5.65967341,71.4002517 4.90475768,70.645336 4.90475768,69.7148584 C4.90622079,68.7843809 5.65967341,68.0301966 6.59015094,68.0294652 Z M23.4440835,68.0294652 C24.3752925,68.0294652 25.1294768,68.7836494 25.1294768,69.7148584 C25.1294768,70.645336 24.3752925,71.4002517 23.4440835,71.4002517 C22.513606,71.4002517 21.7586903,70.645336 21.7586903,69.7148584 C21.7601534,68.7843809 22.513606,68.0301966 23.4440835,68.0294652 Z M24.1199964,65.8444522 L24.1199964,58.5301088 L29.8316069,58.5301088 L29.8316069,71.4821805 L26.9523934,71.4821805 C27.5156543,70.3724835 27.5185803,69.0608906 26.9597086,67.9482678 C26.4008369,66.8356449 25.3467345,66.0543949 24.1199964,65.8444522 Z M29.8316069,10.7772998 L29.8316069,16.4889103 L24.1199964,16.4889103 L24.1199964,10.7772998 L29.8316069,10.7772998 Z M45.7492099,56.2829178 L40.0375994,56.2829178 L40.0375994,50.5713073 L45.7492099,50.5713073 L45.7492099,56.2829178 Z M32.0787979,32.4065133 L32.0787979,26.6949028 L37.7904084,26.6949028 L37.7904084,32.4065133 L32.0787979,32.4065133 Z M37.7904084,34.6537043 L37.7904084,40.3653148 L32.0787979,40.3653148 L32.0787979,34.6537043 L37.7904084,34.6537043 Z M29.8316069,32.4065133 L24.1199964,32.4065133 L24.1199964,26.6949028 L29.8316069,26.6949028 L29.8316069,32.4065133 Z M29.8316069,34.6537043 L29.8316069,40.3653148 L24.1199964,40.3653148 L24.1199964,34.6537043 L29.8316069,34.6537043 Z M29.8316069,42.6125058 L29.8316069,48.3241163 L24.1199964,48.3241163 L24.1199964,42.6125058 L29.8316069,42.6125058 Z M32.0787979,42.6125058 L37.7904084,42.6125058 L37.7904084,48.3241163 L32.0787979,48.3241163 L32.0787979,42.6125058 Z M37.7904084,50.5713073 L37.7904084,56.2829178 L32.0787979,56.2829178 L32.0787979,50.5713073 L37.7904084,50.5713073 Z M45.7492099,48.3241163 L40.0375994,48.3241163 L40.0375994,42.6125058 L45.7492099,42.6125058 L45.7492099,48.3241163 Z M45.7492099,40.3653148 L40.0375994,40.3653148 L40.0375994,34.6537043 L45.7492099,34.6537043 L45.7492099,40.3653148 Z M45.7492099,32.4065133 L40.0375994,32.4065133 L40.0375994,26.6949028 L45.7492099,26.6949028 L45.7492099,32.4065133 Z M45.7492099,24.4477118 L40.0375994,24.4477118 L40.0375994,18.7361013 L45.7492099,18.7361013 L45.7492099,24.4477118 Z M37.7904084,24.4477118 L32.0787979,24.4477118 L32.0787979,18.7361013 L37.7904084,18.7361013 L37.7904084,24.4477118 Z M32.0787979,16.4889103 L32.0787979,10.7772998 L37.7904084,10.7772998 L37.7904084,16.4889103 L32.0787979,16.4889103 Z M29.8316069,18.7361013 L29.8316069,24.4477118 L24.1199964,24.4477118 L24.1199964,18.7361013 L29.8316069,18.7361013 Z M21.8728054,24.4477118 L16.1611949,24.4477118 L16.1611949,18.7361013 L21.8728054,18.7361013 L21.8728054,24.4477118 Z M21.8728054,26.6949028 L21.8728054,32.4065133 L16.1611949,32.4065133 L16.1611949,26.6949028 L21.8728054,26.6949028 Z M21.8728054,34.6537043 L21.8728054,40.3653148 L16.1611949,40.3653148 L16.1611949,34.6537043 L21.8728054,34.6537043 Z M21.8728054,42.6125058 L21.8728054,48.3241163 L16.1611949,48.3241163 L16.1611949,42.6125058 L21.8728054,42.6125058 Z M21.8728054,50.5713073 L21.8728054,56.2829178 L16.1611949,56.2829178 L16.1611949,50.5713073 L21.8728054,50.5713073 Z M24.1199964,50.5713073 L29.8316069,50.5713073 L29.8316069,56.2829178 L24.1199964,56.2829178 L24.1199964,50.5713073 Z M32.0787979,58.5301088 L37.7904084,58.5301088 L37.7904084,71.4821805 L32.0787979,71.4821805 L32.0787979,58.5301088 Z M40.0375994,58.5301088 L45.7492099,58.5301088 L45.7492099,71.4821805 L40.0375994,71.4821805 L40.0375994,58.5301088 Z M45.7492099,16.4889103 L40.0375994,16.4889103 L40.0375994,10.7772998 L45.7492099,10.7772998 L45.7492099,16.4889103 Z M18.8143727,2.30351704 L43.0960322,2.30351704 L43.0960322,5.36194981 L18.8143727,5.36194981 L18.8143727,2.30351704 Z M21.4668187,7.60914082 L40.4435861,7.60914082 L40.4435861,8.5301088 L21.4668187,8.5301088 L21.4668187,7.60914082 Z M21.8728054,10.7772998 L21.8728054,16.4889103 L16.1611949,16.4889103 L16.1611949,10.7772998 L21.8728054,10.7772998 Z M15.0171172,68.0294652 C15.9483262,68.0294652 16.7025105,68.7836494 16.7025105,69.7148584 C16.7025105,70.645336 15.9483262,71.4002517 15.0171172,71.4002517 C14.0866397,71.4002517 13.331724,70.645336 13.331724,69.7148584 C13.3331871,68.7843809 14.0866397,68.0301966 15.0171172,68.0294652 Z M16.1611949,65.9527154 L16.1611949,58.5301088 L21.8728054,58.5301088 L21.8728054,66.1121839 C20.8808813,66.5415788 20.1106039,67.3615989 19.7441187,68.3783942 C19.3776333,69.3951895 19.4471266,70.518785 19.9365052,71.4821805 L18.5254272,71.4821805 C19.0506496,70.4470974 19.0901509,69.2327949 18.6344217,68.1655255 C18.177961,67.0982562 17.2723549,66.2884773 16.1611949,65.9527154 L16.1611949,65.9527154 Z" id="Shape-02" fill="#1E1D85"></path>
                        </g>
                    </g>
                </g>
            </g>
        </g>
    </g>
</svg>